<?xml version="1.0" encoding="UTF-8" standalone="no"?>
<!-- Created with Inkscape (http://www.inkscape.org/) -->

<svg
   version="1.1"
   id="svg14226"
   width="63.999996"
   height="60.158443"
   viewBox="0 0 63.999999 60.158443"
   sodipodi:docname="26907045.jpg"
   xmlns:inkscape="http://www.inkscape.org/namespaces/inkscape"
   xmlns:sodipodi="http://sodipodi.sourceforge.net/DTD/sodipodi-0.dtd"
   xmlns="http://www.w3.org/2000/svg"
   xmlns:svg="http://www.w3.org/2000/svg">
  <defs
     id="defs14230" />
  <sodipodi:namedview
     id="namedview14228"
     pagecolor="#ffffff"
     bordercolor="#000000"
     borderopacity="0.25"
     inkscape:showpageshadow="2"
     inkscape:pageopacity="0.0"
     inkscape:pagecheckerboard="0"
     inkscape:deskcolor="#d1d1d1"
     showgrid="false" />
  <g
     inkscape:groupmode="layer"
     inkscape:label="Image"
     id="g14232"
     transform="translate(-630.1146,-128.10145)">
    <path
       style="opacity:1;fill:#9e835f;fill-opacity:1;stroke:#000000;stroke-width:2.79153;stroke-opacity:1"
       d="m 649.099,183.8079 c 0,0 -3.8955,-4.58042 -5.77904,-5.0085 -1.88353,-0.42807 -6.24992,-2.48284 -6.7208,-4.06673 -0.47089,-1.58388 0.0856,-2.56846 -1.92635,-4.28076 -2.01196,-1.71231 -2.06183,-5.01866 -2.06183,-5.01866 l -1.02356,1.6951 c -0.70765,0.17691 3.71317,-16.32373 5.62454,-15.49804 1.50515,0.65022 -3.56013,-2.64766 -3.75343,-4.72205 -0.1348,-1.4466 -1.21182,-5.53783 0,-8.71765 1.29065,-3.38664 7.88673,2.49737 7.74902,3.87451 -2.61552,-14.43312 32.01282,-17.32218 39.71372,-3.99559 1.84414,-2.48338 3.06162,-2.22514 3.99559,-0.72647 1.31749,3.1936 1.8091,6.22202 0.84755,8.9598 -0.4754,1.97293 -1.11349,3.29512 -1.81619,4.35883 2.14402,2.55801 2.20874,3.60032 7.63654,7.81994 l -2.06693,1.13986 c 1.26818,5.13942 2.36414,10.26386 -3.63236,14.77156 l -7.62793,4.84314 -3.02696,3.02696 -3.02696,4.60098 h -23.0049 z"
       id="path14770"
       sodipodi:nodetypes="csssccsssccccccccccccc" />
    <path
       style="opacity:1;fill:#000000;fill-opacity:1;stroke:none;stroke-width:1.39576;stroke-dasharray:none;stroke-opacity:1"
       d="m 635.01527,142.49849 c 0.012,-1.23449 -0.51283,-2.81636 1.32704,-2.86811 3.7558,1.86023 4.65701,6.81471 5.26535,7.66257 -2.09965,-3.06011 -4.83656,-7.03588 -5.4595,-6.58244 -0.52577,0.0701 -0.71474,1.24223 -1.13289,1.78798 z"
       id="path15500"
       sodipodi:nodetypes="ccccc" />
    <path
       style="opacity:1;fill:#000000;fill-opacity:1;stroke:none;stroke-width:1.39576;stroke-dasharray:none;stroke-opacity:1"
       d="m 648.07162,144.55326 c 2.21206,-1.59486 4.33972,-4.03364 6.76361,-3.51023 l 2.99654,0.59931 c 1.05247,-0.6365 0.87675,-1.44845 0.34246,-2.31162 -1.16114,-1.08273 -2.66587,-1.13468 -4.28077,-0.85615 -3.67613,1.63768 -4.23181,4.04608 -5.82184,6.07869 z"
       id="path16954"
       sodipodi:nodetypes="cccccc" />
    <path
       style="opacity:1;fill:#ffffff;fill-opacity:1;stroke:none;stroke-width:0.279153;stroke-dasharray:none;stroke-opacity:1"
       d="m 662.71184,183.76509 c -1.82646,0.65727 -3.65292,0.56729 -5.47938,0.0856 -0.61621,-3.28192 -1.79149,-6.56384 -1.36985,-9.84577 -4.84913,-2.8077 -6.46725,-4.9692 -7.96222,-7.10607 -0.50767,-3.02769 0.87822,-4.63521 2.14038,-6.33554 2.14038,-3.30158 4.28077,-4.62422 6.42115,-4.96569 1.01832,-1.73817 2.27032,-2.07426 3.51023,-2.48284 3.76708,-0.53235 7.53415,-0.87471 11.30123,1.28423 1.5318,1.19861 1.67047,2.39723 1.62669,3.59584 4.59718,1.0926 4.43993,3.67097 5.65061,5.82185 0.7836,6.99028 -1.1941,6.40797 -1.96915,8.13345 -1.07241,1.59372 -2.38551,2.70606 -4.36638,2.48285 l -1.36985,0.17123 c -0.10887,2.9421 -0.4836,5.75128 -2.39723,7.791 -1.65369,0.60544 -3.42615,0.73583 -5.30815,0.42808 z"
       id="path16956"
       sodipodi:nodetypes="cccccccccccccccc" />
    <path
       style="opacity:1;fill:#000000;fill-opacity:1;stroke:none;stroke-width:1.39576;stroke-dasharray:none;stroke-opacity:1"
       d="m 665.62277,166.55641 c 2.49166,-2.42283 5.68413,-4.61206 6.93484,-7.44854 0.46053,-2.26831 0.50479,-4.42099 -3.08215,-5.565 -2.98597,-1.02436 -9.15926,-1.73269 -12.32862,1.02739 -0.61242,1.32654 -1.55976,2.27632 -0.42807,5.565 0.66334,1.9071 2.10491,3.25833 4.36638,4.02392 z"
       id="path17012"
       sodipodi:nodetypes="ccccccc" />
    <path
       style="opacity:1;fill:#ffffff;fill-opacity:1;stroke:none;stroke-width:1.39576;stroke-dasharray:none;stroke-opacity:1"
       d="m 661.17077,160.13526 c 0.20346,-2.80882 1.08503,-3.22138 3.59584,-3.76708 -2.42049,-0.41657 -4.77141,-0.21511 -4.19515,2.31161 0.14852,0.74138 0.37156,1.11018 0.59931,1.45547 z"
       id="path17794"
       sodipodi:nodetypes="cccc" />
    <path
       style="opacity:1;fill:none;fill-opacity:1;stroke:#000000;stroke-width:0.279153;stroke-dasharray:none;stroke-opacity:1"
       d="m 663.13992,182.82333 0.81335,-2.7397 0.29965,-9.07522 3.72427,3.33899 2.86811,0.25685 c -0.26518,2.77496 -1.10499,5.35839 -2.39723,7.791 -1.61342,0.92247 -3.475,0.6042 -5.30815,0.42808 z"
       id="path17796"
       sodipodi:nodetypes="ccccccc" />
    <path
       style="opacity:1;fill:none;fill-opacity:1;stroke:#000000;stroke-width:0.279153;stroke-dasharray:none;stroke-opacity:1"
       d="m 664.25292,171.00841 c 1.11115,-1.23226 1.73853,-2.65058 1.36985,-4.452 2.64699,-2.63352 6.02973,-4.53428 7.2773,-8.56154 7.28362,1.91329 7.62648,10.36318 2.44826,15.41554 -0.92015,1.01849 -2.62092,1.20302 -4.50303,1.19384 l -2.86811,-0.25685 z"
       id="path17800"
       sodipodi:nodetypes="ccccccc" />
    <path
       style="opacity:1;fill:none;fill-opacity:1;stroke:#000000;stroke-width:0.279153;stroke-dasharray:none;stroke-opacity:1"
       d="m 664.25292,171.00841 c -2.19551,2.63863 -4.93956,3.78127 -8.39031,2.99653 0.042,3.64158 0.65997,6.71207 1.75174,9.64611 2.09679,0.64187 3.45343,0.59493 5.09749,0.11404 l 1.24143,-3.68146 z"
       id="path17802"
       sodipodi:nodetypes="cccccc" />
    <path
       style="opacity:1;fill:none;fill-opacity:1;stroke:#000000;stroke-width:0.279153;stroke-dasharray:none;stroke-opacity:1"
       d="m 665.62277,166.55641 c 0.64908,5.46862 -5.95772,8.45697 -9.76016,7.44853 -15.08554,-7.27335 -3.76919,-16.99329 0.59931,-18.4073 0.46876,2.14136 -1.69954,1.32602 2.1088,7.21176 z"
       id="path17804"
       sodipodi:nodetypes="ccccc" />
    <path
       style="opacity:1;fill:#000000;fill-opacity:1;stroke:none;stroke-width:0.279153;stroke-dasharray:none;stroke-opacity:1"
       d="m 657.36088,166.21395 v 0.72773 c -7.46103,-0.44917 -13.39391,0.91636 -19.04941,2.61127 5.04543,-1.36237 6.85852,-3.34268 19.04941,-3.339 z"
       id="path18532"
       sodipodi:nodetypes="cccc" />
    <path
       style="opacity:1;fill:#000000;fill-opacity:1;stroke:none;stroke-width:0.279153;stroke-dasharray:none;stroke-opacity:1"
       d="m 655.73419,163.64548 v 0.72774 c -6.90454,-1.56217 -14.03603,-1.6093 -17.55115,-0.59931 1.57801,-1.44798 11.01087,-1.63037 17.55115,-0.12843 z"
       id="path18534"
       sodipodi:nodetypes="cccc" />
    <path
       style="opacity:1;fill:#000000;fill-opacity:1;stroke:none;stroke-width:0.279153;stroke-dasharray:none;stroke-opacity:1"
       d="m 655.60577,168.99644 v 0.72773 c -5.70592,1.39157 -10.18334,8.49332 -13.14196,11.6865 1.27836,-2.00448 5.83114,-9.67821 13.14196,-12.41423 z"
       id="path18536"
       sodipodi:nodetypes="cccc" />
    <path
       style="opacity:1;fill:#000000;fill-opacity:1;stroke:none;stroke-width:0.279153;stroke-dasharray:none;stroke-opacity:1"
       d="m 674.69799,166.55641 v 0.72773 c 7.46104,-0.44917 13.39392,0.91636 19.04942,2.61127 -5.04544,-1.36237 -6.85852,-3.34268 -19.04942,-3.339 z"
       id="path18538"
       sodipodi:nodetypes="cccc" />
    <path
       style="opacity:1;fill:#000000;fill-opacity:1;stroke:none;stroke-width:0.279153;stroke-dasharray:none;stroke-opacity:1"
       d="m 673.41376,164.07356 v 0.72773 c 4.29327,-3.53132 13.73639,-4.34898 20.50489,-3.16776 -5.08825,-1.83326 -13.06564,-1.80161 -20.50489,2.44003 z"
       id="path18540"
       sodipodi:nodetypes="cccc" />
    <path
       style="opacity:1;fill:#000000;fill-opacity:1;stroke:none;stroke-width:0.279153;stroke-dasharray:none;stroke-opacity:1"
       d="m 673.11411,169.21048 v 0.72774 c 4.63573,0.15014 5.38889,3.27078 11.81492,5.43657 -3.80402,-1.61921 -5.83114,-4.75533 -11.81492,-6.16431 z"
       id="path18542"
       sodipodi:nodetypes="cccc" />
    <path
       style="opacity:1;fill:#000000;fill-opacity:1;stroke:none;stroke-width:0.279153;stroke-dasharray:none;stroke-opacity:1"
       d="m 677.13803,144.51045 c -1.88497,-2.10153 -4.00857,-2.96222 -6.46396,-2.09758 -0.69281,-0.98615 -0.50577,-1.79633 0.51369,-2.44003 3.56501,-0.28472 4.85378,2.0172 5.95027,4.53761 z"
       id="path18544"
       sodipodi:nodetypes="cccc" />
    <path
       style="opacity:1;fill:#ffffff;fill-opacity:1;stroke:none;stroke-width:0.279153;stroke-dasharray:none;stroke-opacity:1"
       d="m 657.14684,154.57026 c -0.83083,0.8487 -4.29248,0.84822 -6.46395,1.19861 0.37635,-3.66058 0.4326,-8.05741 1.88353,-9.24646 1.65258,-0.75964 3.204,-0.96292 4.40329,0.77054 0.93274,2.60051 2.01458,5.23084 0.17713,7.27731 z"
       id="path19272"
       sodipodi:nodetypes="ccccc" />
    <path
       style="opacity:1;fill:#000000;fill-opacity:1;stroke:none;stroke-width:0.279153;stroke-dasharray:none;stroke-opacity:1"
       d="m 658.14692,153.41445 c -4.55,-4.78453 -5.01736,-0.3014 -5.23804,2.003 1.37663,0.052 2.77838,-0.12922 4.23796,-0.84719 z"
       id="path19274"
       sodipodi:nodetypes="cccc" />
    <ellipse
       style="opacity:1;fill:#ffffff;fill-opacity:1;stroke:none;stroke-width:0.279153;stroke-dasharray:none;stroke-opacity:1"
       id="path19276"
       cx="653.93176"
       cy="153.9556"
       rx="0.59613466"
       ry="0.59613514" />
    <path
       style="opacity:1;fill:#ffffff;fill-opacity:1;stroke:none;stroke-width:0.279153;stroke-dasharray:none;stroke-opacity:1"
       d="m 672.10244,155.14787 3.66575,0.26958 c 0.65319,-2.39644 0.36021,-3.92683 0.12842,-5.51323 -1.04159,-3.9277 -5.068,-5.07542 -6.93485,0.21404 l -0.29965,3.2412 c 1.69634,0.62134 3.48053,1.2467 3.44033,1.78841 z"
       id="path19330"
       sodipodi:nodetypes="cccccc" />
    <path
       style="opacity:1;fill:#000000;fill-opacity:1;stroke:none;stroke-width:0.279153;stroke-dasharray:none;stroke-opacity:1"
       d="m 669.47546,153.54287 c 1.09704,-4.10174 4.73484,-3.09731 4.06673,1.49827 h -1.54108 c -0.41418,-0.6705 -1.58485,-1.03841 -2.52565,-1.49827 z"
       id="path19332"
       sodipodi:nodetypes="cccc" />
    <circle
       style="opacity:1;fill:#ffffff;fill-opacity:1;stroke:none;stroke-width:0.279153;stroke-dasharray:none;stroke-opacity:1"
       id="path19386"
       cx="670.65265"
       cy="153.22182"
       r="0.66351908" />
    <path
       style="opacity:1;fill:#000000;fill-opacity:1;stroke:none;stroke-width:0.279153;stroke-dasharray:none;stroke-opacity:1"
       d="m 683.10069,146.78718 c -0.0403,-2.03826 1.29976,-5.45679 -0.6054,-5.63015 -0.71172,0.0322 -1.49728,-0.0463 -1.27133,1.3924 2.42709,-1.49755 1.32103,2.71228 1.87673,4.23775 z"
       id="path20410"
       sodipodi:nodetypes="cccc" />
  </g>
</svg>
