<?xml version="1.0" encoding="UTF-8" standalone="no"?>
<!-- Created with Inkscape (http://www.inkscape.org/) -->

<svg
   width="63.999989"
   height="50.331841"
   viewBox="0 0 16.93333 13.316967"
   version="1.1"
   id="svg5"
   inkscape:export-filename="pause.svg"
   inkscape:export-xdpi="96"
   inkscape:export-ydpi="96"
   xmlns:inkscape="http://www.inkscape.org/namespaces/inkscape"
   xmlns:sodipodi="http://sodipodi.sourceforge.net/DTD/sodipodi-0.dtd"
   xmlns="http://www.w3.org/2000/svg"
   xmlns:svg="http://www.w3.org/2000/svg">
  <sodipodi:namedview
     id="namedview7"
     pagecolor="#ffffff"
     bordercolor="#000000"
     borderopacity="0.25"
     inkscape:showpageshadow="2"
     inkscape:pageopacity="0.0"
     inkscape:pagecheckerboard="0"
     inkscape:deskcolor="#d1d1d1"
     inkscape:document-units="mm"
     showgrid="false" />
  <defs
     id="defs2" />
  <g
     inkscape:label="Calque 1"
     inkscape:groupmode="layer"
     id="layer1"
     transform="translate(-60.867205,-133.63958)">
    <circle
       style="fill:#d7d7d7;fill-opacity:1;stroke:#000000;stroke-width:0.661894;stroke-linecap:round;stroke-linejoin:round;stroke-dasharray:none;stroke-opacity:1"
       id="path184"
       cx="67.525688"
       cy="140.29807"
       r="6.3275361" />
    <circle
       style="fill:none;stroke:#000000;stroke-width:0.356454;stroke-linecap:round;stroke-linejoin:round;stroke-dasharray:none;stroke-opacity:1"
       id="circle1466"
       cx="67.525688"
       cy="140.29807"
       r="4.221921" />
    <path
       id="rect2404"
       style="stroke-width:0.489704;stroke-linecap:round;stroke-linejoin:round"
       d="m 74.494851,135.36299 a 0.25889397,0.21797721 0 0 0 -0.230291,0.23965 v 2.2181 a 0.91798815,0.77290519 0 0 0 0.917974,0.77291 h 0.477193 l -0.18832,6.29999 a 0.39339756,0.33122324 0 0 0 0.393317,0.3395 h 0.335645 a 0.39337301,0.33120258 0 0 0 0.393245,-0.3395 l -0.188667,-6.29999 h 0.465174 a 0.93040679,0.78336116 0 0 0 0.930414,-0.78337 v -2.20764 a 0.28463478,0.23964981 0 0 0 -0.284634,-0.23965 0.25892447,0.21800287 0 0 0 -0.230364,0.23965 v 1.84617 a 0.28463478,0.23964981 0 0 1 -0.284634,0.23964 0.2514661,0.21172327 0 0 1 -0.213199,-0.23964 v -1.84617 a 0.28463478,0.23964981 0 0 0 -0.284635,-0.23965 0.23515697,0.19799172 0 0 0 -0.171988,0.23965 v 1.84617 a 0.28463478,0.23964981 0 0 1 -0.284636,0.23964 h -0.06296 a 0.28463478,0.23964981 0 0 1 -0.284635,-0.23964 v -1.84617 a 0.28463478,0.23964981 0 0 0 -0.284636,-0.23965 0.22333613,0.18803908 0 0 0 -0.136898,0.23965 v 1.84617 a 0.28463478,0.23964981 0 0 1 -0.284632,0.23964 0.25146557,0.21172281 0 0 1 -0.213199,-0.23964 v -1.84617 a 0.28463478,0.23964981 0 0 0 -0.284634,-0.23965 z" />
  </g>
</svg>
